<svg xmlns="http://www.w3.org/2000/svg" xmlns:xlink="http://www.w3.org/1999/xlink" width="1430" height="363.94"><rect width="1430" height="363.94" rx="5" ry="5" class="a"/><svg y="0%" x="0%"><circle cx="20" cy="20" r="6" fill="#ff5f58"/><circle cx="40" cy="20" r="6" fill="#ffbd2e"/><circle cx="60" cy="20" r="6" fill="#18c132"/></svg><svg height="303.94" viewBox="0 0 139 30.394" width="1390" x="15" xmlns="http://www.w3.org/2000/svg" xmlns:xlink="http://www.w3.org/1999/xlink" y="50"><style>@keyframes j{0%{transform:translateX(0)}.07%{transform:translateX(-139px)}5.29%{transform:translateX(-278px)}5.55%{transform:translateX(-417px)}6.13%{transform:translateX(-556px)}6.37%{transform:translateX(-695px)}6.66%{transform:translateX(-834px)}7.68%{transform:translateX(-973px)}9.2%{transform:translateX(-1112px)}9.72%{transform:translateX(-1251px)}10%{transform:translateX(-1390px)}10.46%{transform:translateX(-1529px)}10.63%{transform:translateX(-1807px)}15.76%{transform:translateX(-1946px)}16.35%{transform:translateX(-2085px)}16.66%{transform:translateX(-2224px)}17.08%{transform:translateX(-2363px)}17.53%{transform:translateX(-2502px)}18.62%{transform:translateX(-3058px)}29.82%{transform:translateX(-3197px)}30.75%{transform:translateX(-3753px)}43.6%{transform:translateX(-3892px)}45%{transform:translateX(-4448px)}57%{transform:translateX(-4587px)}58.31%{transform:translateX(-5004px)}58.32%{transform:translateX(-5143px)}62.97%{transform:translateX(-5282px)}64.91%{transform:translateX(-5421px)}65.08%{transform:translateX(-5560px)}65.09%{transform:translateX(-5699px)}70.04%{transform:translateX(-5838px)}70.63%{transform:translateX(-5977px)}71.68%{transform:translateX(-6116px)}72.18%{transform:translateX(-6255px)}72.54%{transform:translateX(-6394px)}73.1%{transform:translateX(-6533px)}73.35%{transform:translateX(-6672px)}73.92%{transform:translateX(-6811px)}74.42%{transform:translateX(-6950px)}74.65%{transform:translateX(-7089px)}74.95%{transform:translateX(-7228px)}75.63%{transform:translateX(-7367px)}76.02%{transform:translateX(-7506px)}76.23%{transform:translateX(-7645px)}76.6%{transform:translateX(-7784px)}77.05%{transform:translateX(-7923px)}79.82%{transform:translateX(-8618px)}85.15%{transform:translateX(-8757px)}86.35%{transform:translateX(-8896px)}87.24%{transform:translateX(-9035px)}88.02%{transform:translateX(-9174px)}89.26%{transform:translateX(-9313px)}89.27%{transform:translateX(-9452px)}to{transform:translateX(-9591px)}}.a{fill:#282d35}.f,.g,.h{white-space:pre}.f{fill:#a8cc8c;font-weight:700}.g,.h{fill:#b9c0cb}.h{fill:#71bef2;font-weight:700}</style><g font-family="Monaco,Consolas,Menlo,'Bitstream Vera Sans Mono','Powerline Symbols',monospace" font-size="1.67"><defs><symbol id="1"><text y="1.67" class="f">nrzhn@t470s</text><text x="11.022" y="1.67" class="g">:</text><text x="12.024" y="1.67" class="h">~/hexlet/frontend-project-lvl1</text><text x="42.084" y="1.67" class="g">$</text></symbol><symbol id="2"><text y="1.67" class="f">nrzhn@t470s</text><text x="11.022" y="1.67" class="g">:</text><text x="12.024" y="1.67" class="h">~/hexlet/frontend-project-lvl1</text><text x="42.084" y="1.67" class="g">$</text><text x="44.088" y="1.67" class="g">brain-gcd</text></symbol><symbol id="3"><text y="1.67" class="g">Welcome</text><text x="8.016" y="1.67" class="g">to</text><text x="11.022" y="1.67" class="g">the</text><text x="15.03" y="1.67" class="g">Brain</text><text x="21.042" y="1.67" class="g">Games!</text></symbol><symbol id="4"><text y="1.67" class="g">May</text><text x="4.008" y="1.67" class="g">I</text><text x="6.012" y="1.67" class="g">have</text><text x="11.022" y="1.67" class="g">your</text><text x="16.032" y="1.67" class="g">name?</text></symbol><symbol id="5"><text y="1.67" class="g">May</text><text x="4.008" y="1.67" class="g">I</text><text x="6.012" y="1.67" class="g">have</text><text x="11.022" y="1.67" class="g">your</text><text x="16.032" y="1.67" class="g">name?</text><text x="22.044" y="1.67" class="g">B</text></symbol><symbol id="6"><text y="1.67" class="g">May</text><text x="4.008" y="1.67" class="g">I</text><text x="6.012" y="1.67" class="g">have</text><text x="11.022" y="1.67" class="g">your</text><text x="16.032" y="1.67" class="g">name?</text><text x="22.044" y="1.67" class="g">Br</text></symbol><symbol id="7"><text y="1.67" class="g">May</text><text x="4.008" y="1.67" class="g">I</text><text x="6.012" y="1.67" class="g">have</text><text x="11.022" y="1.67" class="g">your</text><text x="16.032" y="1.67" class="g">name?</text><text x="22.044" y="1.67" class="g">Bryan</text></symbol><symbol id="8"><text y="1.67" class="g">Hello,</text><text x="7.014" y="1.67" class="g">Bryan!</text></symbol><symbol id="9"><text y="1.67" class="g">Find</text><text x="5.01" y="1.67" class="g">the</text><text x="9.018" y="1.67" class="g">greatest</text><text x="18.036" y="1.67" class="g">common</text><text x="25.05" y="1.67" class="g">divisor</text><text x="33.066" y="1.67" class="g">of</text><text x="36.072" y="1.67" class="g">given</text><text x="42.084" y="1.67" class="g">numbers.</text></symbol><symbol id="10"><text y="1.67" class="g">Question:</text><text x="10.02" y="1.67" class="g">12</text><text x="13.026" y="1.67" class="g">10</text></symbol><symbol id="11"><text y="1.67" class="g">Your</text><text x="5.01" y="1.67" class="g">answer:</text></symbol><symbol id="12"><text y="1.67" class="g">Your</text><text x="5.01" y="1.67" class="g">answer:</text><text x="13.026" y="1.67" class="g">2</text></symbol><symbol id="13"><text y="1.67" class="g">Correct!</text></symbol><symbol id="14"><text y="1.67" class="g">Question:</text><text x="10.02" y="1.67" class="g">71</text><text x="13.026" y="1.67" class="g">88</text></symbol><symbol id="15"><text y="1.67" class="g">Your</text><text x="5.01" y="1.67" class="g">answer:</text><text x="13.026" y="1.67" class="g">1</text></symbol><symbol id="16"><text y="1.67" class="g">Question:</text><text x="10.02" y="1.67" class="g">34</text><text x="13.026" y="1.67" class="g">15</text></symbol><symbol id="17"><text y="1.67" class="g">Congratulations,</text><text x="17.034" y="1.67" class="g">Bryan!</text></symbol><symbol id="18"><text y="1.67" class="g">May</text><text x="4.008" y="1.67" class="g">I</text><text x="6.012" y="1.67" class="g">have</text><text x="11.022" y="1.67" class="g">your</text><text x="16.032" y="1.67" class="g">name?</text><text x="22.044" y="1.67" class="g">Stupid</text></symbol><symbol id="19"><text y="1.67" class="g">May</text><text x="4.008" y="1.67" class="g">I</text><text x="6.012" y="1.67" class="g">have</text><text x="11.022" y="1.67" class="g">your</text><text x="16.032" y="1.67" class="g">name?</text><text x="22.044" y="1.67" class="g">Stupid</text><text x="29.058" y="1.67" class="g">Bryan</text></symbol><symbol id="20"><text y="1.67" class="g">Hello,</text><text x="7.014" y="1.67" class="g">Stupid</text><text x="14.028" y="1.67" class="g">Bryan!</text></symbol><symbol id="21"><text y="1.67" class="g">Question:</text><text x="10.02" y="1.67" class="g">37</text><text x="13.026" y="1.67" class="g">96</text></symbol><symbol id="22"><text y="1.67" class="g">Your</text><text x="5.01" y="1.67" class="g">answer:</text><text x="13.026" y="1.67" class="g">11</text></symbol><symbol id="23"><text y="1.67" class="g">&apos;11&apos;</text><text x="5.01" y="1.67" class="g">is</text><text x="8.016" y="1.67" class="g">wrong</text><text x="14.028" y="1.67" class="g">answer</text><text x="21.042" y="1.67" class="g">;(.</text><text x="25.05" y="1.67" class="g">Correct</text><text x="33.066" y="1.67" class="g">answer</text><text x="40.08" y="1.67" class="g">is</text><text x="43.086" y="1.67" class="g">&apos;1&apos;.</text></symbol><symbol id="24"><text y="1.67" class="g">Let&apos;s</text><text x="6.012" y="1.67" class="g">try</text><text x="10.02" y="1.67" class="g">again,</text><text x="17.034" y="1.67" class="g">Stupid</text><text x="24.048" y="1.67" class="g">Bryan!</text></symbol><symbol id="a"><path fill="transparent" d="M0 0h139v14H0z"/></symbol></defs><path class="a" d="M0 0h139v30.394H0z"/><g style="animation-duration:40.3043s;animation-iteration-count:infinite;animation-name:j;animation-timing-function:steps(1,end)"><svg width="9730"><svg><use xlink:href="#a"/></svg><svg x="139"><use xlink:href="#a"/><use xlink:href="#1"/></svg><svg x="278"><use xlink:href="#a"/><text y="1.67" class="f">nrzhn@t470s</text><text x="11.022" y="1.67" class="g">:</text><text x="12.024" y="1.67" class="h">~/hexlet/frontend-project-lvl1</text><text x="42.084" y="1.67" class="g">$</text><text x="44.088" y="1.67" class="g">b</text></svg><svg x="417"><use xlink:href="#a"/><text y="1.67" class="f">nrzhn@t470s</text><text x="11.022" y="1.67" class="g">:</text><text x="12.024" y="1.67" class="h">~/hexlet/frontend-project-lvl1</text><text x="42.084" y="1.67" class="g">$</text><text x="44.088" y="1.67" class="g">br</text></svg><svg x="556"><use xlink:href="#a"/><text y="1.67" class="f">nrzhn@t470s</text><text x="11.022" y="1.67" class="g">:</text><text x="12.024" y="1.67" class="h">~/hexlet/frontend-project-lvl1</text><text x="42.084" y="1.67" class="g">$</text><text x="44.088" y="1.67" class="g">bra</text></svg><svg x="695"><use xlink:href="#a"/><text y="1.67" class="f">nrzhn@t470s</text><text x="11.022" y="1.67" class="g">:</text><text x="12.024" y="1.67" class="h">~/hexlet/frontend-project-lvl1</text><text x="42.084" y="1.67" class="g">$</text><text x="44.088" y="1.67" class="g">brai</text></svg><svg x="834"><use xlink:href="#a"/><text y="1.67" class="f">nrzhn@t470s</text><text x="11.022" y="1.67" class="g">:</text><text x="12.024" y="1.67" class="h">~/hexlet/frontend-project-lvl1</text><text x="42.084" y="1.67" class="g">$</text><text x="44.088" y="1.67" class="g">brain</text></svg><svg x="973"><use xlink:href="#a"/><text y="1.67" class="f">nrzhn@t470s</text><text x="11.022" y="1.67" class="g">:</text><text x="12.024" y="1.67" class="h">~/hexlet/frontend-project-lvl1</text><text x="42.084" y="1.67" class="g">$</text><text x="44.088" y="1.67" class="g">brain-</text></svg><svg x="1112"><use xlink:href="#a"/><text y="1.67" class="f">nrzhn@t470s</text><text x="11.022" y="1.67" class="g">:</text><text x="12.024" y="1.67" class="h">~/hexlet/frontend-project-lvl1</text><text x="42.084" y="1.67" class="g">$</text><text x="44.088" y="1.67" class="g">brain-g</text></svg><svg x="1251"><use xlink:href="#a"/><text y="1.67" class="f">nrzhn@t470s</text><text x="11.022" y="1.67" class="g">:</text><text x="12.024" y="1.67" class="h">~/hexlet/frontend-project-lvl1</text><text x="42.084" y="1.67" class="g">$</text><text x="44.088" y="1.67" class="g">brain-gc</text></svg><svg x="1390"><use xlink:href="#a"/><use xlink:href="#2"/></svg><svg x="1529"><use xlink:href="#a"/><use xlink:href="#2"/></svg><svg x="1668"><use xlink:href="#a"/><use xlink:href="#2"/><use xlink:href="#3" y="2.171"/></svg><svg x="1807"><use xlink:href="#a"/><use xlink:href="#2"/><use xlink:href="#3" y="2.171"/><use xlink:href="#4" y="4.342"/></svg><svg x="1946"><use xlink:href="#a"/><use xlink:href="#2"/><use xlink:href="#3" y="2.171"/><use xlink:href="#5" y="4.342"/></svg><svg x="2085"><use xlink:href="#a"/><use xlink:href="#2"/><use xlink:href="#3" y="2.171"/><use xlink:href="#6" y="4.342"/></svg><svg x="2224"><use xlink:href="#a"/><use xlink:href="#2"/><use xlink:href="#3" y="2.171"/><text y="6.012" class="g">May</text><text x="4.008" y="6.012" class="g">I</text><text x="6.012" y="6.012" class="g">have</text><text x="11.022" y="6.012" class="g">your</text><text x="16.032" y="6.012" class="g">name?</text><text x="22.044" y="6.012" class="g">Bry</text></svg><svg x="2363"><use xlink:href="#a"/><use xlink:href="#2"/><use xlink:href="#3" y="2.171"/><text y="6.012" class="g">May</text><text x="4.008" y="6.012" class="g">I</text><text x="6.012" y="6.012" class="g">have</text><text x="11.022" y="6.012" class="g">your</text><text x="16.032" y="6.012" class="g">name?</text><text x="22.044" y="6.012" class="g">Brya</text></svg><svg x="2502"><use xlink:href="#a"/><use xlink:href="#2"/><use xlink:href="#3" y="2.171"/><use xlink:href="#7" y="4.342"/></svg><svg x="2641"><use xlink:href="#a"/><use xlink:href="#2"/><use xlink:href="#3" y="2.171"/><use xlink:href="#7" y="4.342"/></svg><svg x="2780"><use xlink:href="#a"/><use xlink:href="#2"/><use xlink:href="#3" y="2.171"/><use xlink:href="#7" y="4.342"/><use xlink:href="#8" y="6.513"/></svg><svg x="2919"><use xlink:href="#a"/><use xlink:href="#2"/><use xlink:href="#3" y="2.171"/><use xlink:href="#7" y="4.342"/><use xlink:href="#8" y="6.513"/><use xlink:href="#9" y="8.684"/></svg><svg x="3058"><use xlink:href="#a"/><use xlink:href="#2"/><use xlink:href="#3" y="2.171"/><use xlink:href="#7" y="4.342"/><use xlink:href="#8" y="6.513"/><use xlink:href="#9" y="8.684"/><use xlink:href="#10" y="10.855"/><use xlink:href="#11" y="13.026"/></svg><svg x="3197"><use xlink:href="#a"/><use xlink:href="#2"/><use xlink:href="#3" y="2.171"/><use xlink:href="#7" y="4.342"/><use xlink:href="#8" y="6.513"/><use xlink:href="#9" y="8.684"/><use xlink:href="#10" y="10.855"/><use xlink:href="#12" y="13.026"/></svg><svg x="3336"><use xlink:href="#a"/><use xlink:href="#2"/><use xlink:href="#3" y="2.171"/><use xlink:href="#7" y="4.342"/><use xlink:href="#8" y="6.513"/><use xlink:href="#9" y="8.684"/><use xlink:href="#10" y="10.855"/><use xlink:href="#12" y="13.026"/></svg><svg x="3475"><use xlink:href="#a"/><use xlink:href="#2"/><use xlink:href="#3" y="2.171"/><use xlink:href="#7" y="4.342"/><use xlink:href="#8" y="6.513"/><use xlink:href="#9" y="8.684"/><use xlink:href="#10" y="10.855"/><use xlink:href="#12" y="13.026"/><use xlink:href="#13" y="15.197"/></svg><svg x="3614"><use xlink:href="#a"/><use xlink:href="#2"/><use xlink:href="#3" y="2.171"/><use xlink:href="#7" y="4.342"/><use xlink:href="#8" y="6.513"/><use xlink:href="#9" y="8.684"/><use xlink:href="#10" y="10.855"/><use xlink:href="#12" y="13.026"/><use xlink:href="#13" y="15.197"/><use xlink:href="#14" y="17.368"/></svg><svg x="3753"><use xlink:href="#a"/><use xlink:href="#2"/><use xlink:href="#3" y="2.171"/><use xlink:href="#7" y="4.342"/><use xlink:href="#8" y="6.513"/><use xlink:href="#9" y="8.684"/><use xlink:href="#10" y="10.855"/><use xlink:href="#12" y="13.026"/><use xlink:href="#13" y="15.197"/><use xlink:href="#14" y="17.368"/><use xlink:href="#11" y="19.539"/></svg><svg x="3892"><use xlink:href="#a"/><use xlink:href="#2"/><use xlink:href="#3" y="2.171"/><use xlink:href="#7" y="4.342"/><use xlink:href="#8" y="6.513"/><use xlink:href="#9" y="8.684"/><use xlink:href="#10" y="10.855"/><use xlink:href="#12" y="13.026"/><use xlink:href="#13" y="15.197"/><use xlink:href="#14" y="17.368"/><use xlink:href="#15" y="19.539"/></svg><svg x="4031"><use xlink:href="#a"/><use xlink:href="#2"/><use xlink:href="#3" y="2.171"/><use xlink:href="#7" y="4.342"/><use xlink:href="#8" y="6.513"/><use xlink:href="#9" y="8.684"/><use xlink:href="#10" y="10.855"/><use xlink:href="#12" y="13.026"/><use xlink:href="#13" y="15.197"/><use xlink:href="#14" y="17.368"/><use xlink:href="#15" y="19.539"/></svg><svg x="4170"><use xlink:href="#a"/><use xlink:href="#2"/><use xlink:href="#3" y="2.171"/><use xlink:href="#7" y="4.342"/><use xlink:href="#8" y="6.513"/><use xlink:href="#9" y="8.684"/><use xlink:href="#10" y="10.855"/><use xlink:href="#12" y="13.026"/><use xlink:href="#13" y="15.197"/><use xlink:href="#14" y="17.368"/><use xlink:href="#15" y="19.539"/><use xlink:href="#13" y="21.71"/></svg><svg x="4309"><use xlink:href="#a"/><use xlink:href="#2"/><use xlink:href="#3" y="2.171"/><use xlink:href="#7" y="4.342"/><use xlink:href="#8" y="6.513"/><use xlink:href="#9" y="8.684"/><use xlink:href="#10" y="10.855"/><use xlink:href="#12" y="13.026"/><use xlink:href="#13" y="15.197"/><use xlink:href="#14" y="17.368"/><use xlink:href="#15" y="19.539"/><use xlink:href="#13" y="21.71"/><use xlink:href="#16" y="23.881"/></svg><svg x="4448"><use xlink:href="#a"/><use xlink:href="#2"/><use xlink:href="#3" y="2.171"/><use xlink:href="#7" y="4.342"/><use xlink:href="#8" y="6.513"/><use xlink:href="#9" y="8.684"/><use xlink:href="#10" y="10.855"/><use xlink:href="#12" y="13.026"/><use xlink:href="#13" y="15.197"/><use xlink:href="#14" y="17.368"/><use xlink:href="#15" y="19.539"/><use xlink:href="#13" y="21.71"/><use xlink:href="#16" y="23.881"/><use xlink:href="#11" y="26.052"/></svg><svg x="4587"><use xlink:href="#a"/><use xlink:href="#2"/><use xlink:href="#3" y="2.171"/><use xlink:href="#7" y="4.342"/><use xlink:href="#8" y="6.513"/><use xlink:href="#9" y="8.684"/><use xlink:href="#10" y="10.855"/><use xlink:href="#12" y="13.026"/><use xlink:href="#13" y="15.197"/><use xlink:href="#14" y="17.368"/><use xlink:href="#15" y="19.539"/><use xlink:href="#13" y="21.71"/><use xlink:href="#16" y="23.881"/><use xlink:href="#15" y="26.052"/></svg><svg x="4726"><use xlink:href="#a"/><use xlink:href="#2"/><use xlink:href="#3" y="2.171"/><use xlink:href="#7" y="4.342"/><use xlink:href="#8" y="6.513"/><use xlink:href="#9" y="8.684"/><use xlink:href="#10" y="10.855"/><use xlink:href="#12" y="13.026"/><use xlink:href="#13" y="15.197"/><use xlink:href="#14" y="17.368"/><use xlink:href="#15" y="19.539"/><use xlink:href="#13" y="21.71"/><use xlink:href="#16" y="23.881"/><use xlink:href="#15" y="26.052"/></svg><svg x="4865"><use xlink:href="#a"/><use xlink:href="#3"/><use xlink:href="#7" y="2.171"/><use xlink:href="#8" y="4.342"/><use xlink:href="#9" y="6.513"/><use xlink:href="#10" y="8.684"/><use xlink:href="#12" y="10.855"/><use xlink:href="#13" y="13.026"/><use xlink:href="#14" y="15.197"/><use xlink:href="#15" y="17.368"/><use xlink:href="#13" y="19.539"/><use xlink:href="#16" y="21.71"/><use xlink:href="#15" y="23.881"/><use xlink:href="#13" y="26.052"/></svg><svg x="5004"><use xlink:href="#a"/><use xlink:href="#7"/><use xlink:href="#8" y="2.171"/><use xlink:href="#9" y="4.342"/><use xlink:href="#10" y="6.513"/><use xlink:href="#12" y="8.684"/><use xlink:href="#13" y="10.855"/><use xlink:href="#14" y="13.026"/><use xlink:href="#15" y="15.197"/><use xlink:href="#13" y="17.368"/><use xlink:href="#16" y="19.539"/><use xlink:href="#15" y="21.71"/><use xlink:href="#13" y="23.881"/><use xlink:href="#17" y="26.052"/></svg><svg x="5143"><use xlink:href="#a"/><use xlink:href="#7"/><use xlink:href="#8" y="2.171"/><use xlink:href="#9" y="4.342"/><use xlink:href="#10" y="6.513"/><use xlink:href="#12" y="8.684"/><use xlink:href="#13" y="10.855"/><use xlink:href="#14" y="13.026"/><use xlink:href="#15" y="15.197"/><use xlink:href="#13" y="17.368"/><use xlink:href="#16" y="19.539"/><use xlink:href="#15" y="21.71"/><use xlink:href="#13" y="23.881"/><use xlink:href="#17" y="26.052"/><use xlink:href="#1" y="28.223"/></svg><svg x="5282"><use xlink:href="#a"/><use xlink:href="#7"/><use xlink:href="#8" y="2.171"/><use xlink:href="#9" y="4.342"/><use xlink:href="#10" y="6.513"/><use xlink:href="#12" y="8.684"/><use xlink:href="#13" y="10.855"/><use xlink:href="#14" y="13.026"/><use xlink:href="#15" y="15.197"/><use xlink:href="#13" y="17.368"/><use xlink:href="#16" y="19.539"/><use xlink:href="#15" y="21.71"/><use xlink:href="#13" y="23.881"/><use xlink:href="#17" y="26.052"/><use xlink:href="#2" y="28.223"/></svg><svg x="5421"><use xlink:href="#a"/><use xlink:href="#8"/><use xlink:href="#9" y="2.171"/><use xlink:href="#10" y="4.342"/><use xlink:href="#12" y="6.513"/><use xlink:href="#13" y="8.684"/><use xlink:href="#14" y="10.855"/><use xlink:href="#15" y="13.026"/><use xlink:href="#13" y="15.197"/><use xlink:href="#16" y="17.368"/><use xlink:href="#15" y="19.539"/><use xlink:href="#13" y="21.71"/><use xlink:href="#17" y="23.881"/><use xlink:href="#2" y="26.052"/></svg><svg x="5560"><use xlink:href="#a"/><use xlink:href="#9"/><use xlink:href="#10" y="2.171"/><use xlink:href="#12" y="4.342"/><use xlink:href="#13" y="6.513"/><use xlink:href="#14" y="8.684"/><use xlink:href="#15" y="10.855"/><use xlink:href="#13" y="13.026"/><use xlink:href="#16" y="15.197"/><use xlink:href="#15" y="17.368"/><use xlink:href="#13" y="19.539"/><use xlink:href="#17" y="21.71"/><use xlink:href="#2" y="23.881"/><use xlink:href="#3" y="26.052"/></svg><svg x="5699"><use xlink:href="#a"/><use xlink:href="#9"/><use xlink:href="#10" y="2.171"/><use xlink:href="#12" y="4.342"/><use xlink:href="#13" y="6.513"/><use xlink:href="#14" y="8.684"/><use xlink:href="#15" y="10.855"/><use xlink:href="#13" y="13.026"/><use xlink:href="#16" y="15.197"/><use xlink:href="#15" y="17.368"/><use xlink:href="#13" y="19.539"/><use xlink:href="#17" y="21.71"/><use xlink:href="#2" y="23.881"/><use xlink:href="#3" y="26.052"/><use xlink:href="#4" y="28.223"/></svg><svg x="5838"><use xlink:href="#a"/><use xlink:href="#9"/><use xlink:href="#10" y="2.171"/><use xlink:href="#12" y="4.342"/><use xlink:href="#13" y="6.513"/><use xlink:href="#14" y="8.684"/><use xlink:href="#15" y="10.855"/><use xlink:href="#13" y="13.026"/><use xlink:href="#16" y="15.197"/><use xlink:href="#15" y="17.368"/><use xlink:href="#13" y="19.539"/><use xlink:href="#17" y="21.71"/><use xlink:href="#2" y="23.881"/><use xlink:href="#3" y="26.052"/><use xlink:href="#5" y="28.223"/></svg><svg x="5977"><use xlink:href="#a"/><use xlink:href="#9"/><use xlink:href="#10" y="2.171"/><use xlink:href="#12" y="4.342"/><use xlink:href="#13" y="6.513"/><use xlink:href="#14" y="8.684"/><use xlink:href="#15" y="10.855"/><use xlink:href="#13" y="13.026"/><use xlink:href="#16" y="15.197"/><use xlink:href="#15" y="17.368"/><use xlink:href="#13" y="19.539"/><use xlink:href="#17" y="21.71"/><use xlink:href="#2" y="23.881"/><use xlink:href="#3" y="26.052"/><use xlink:href="#6" y="28.223"/></svg><svg x="6116"><use xlink:href="#a"/><use xlink:href="#9"/><use xlink:href="#10" y="2.171"/><use xlink:href="#12" y="4.342"/><use xlink:href="#13" y="6.513"/><use xlink:href="#14" y="8.684"/><use xlink:href="#15" y="10.855"/><use xlink:href="#13" y="13.026"/><use xlink:href="#16" y="15.197"/><use xlink:href="#15" y="17.368"/><use xlink:href="#13" y="19.539"/><use xlink:href="#17" y="21.71"/><use xlink:href="#2" y="23.881"/><use xlink:href="#3" y="26.052"/><use xlink:href="#5" y="28.223"/></svg><svg x="6255"><use xlink:href="#a"/><use xlink:href="#9"/><use xlink:href="#10" y="2.171"/><use xlink:href="#12" y="4.342"/><use xlink:href="#13" y="6.513"/><use xlink:href="#14" y="8.684"/><use xlink:href="#15" y="10.855"/><use xlink:href="#13" y="13.026"/><use xlink:href="#16" y="15.197"/><use xlink:href="#15" y="17.368"/><use xlink:href="#13" y="19.539"/><use xlink:href="#17" y="21.71"/><use xlink:href="#2" y="23.881"/><use xlink:href="#3" y="26.052"/><use xlink:href="#4" y="28.223"/></svg><svg x="6394"><use xlink:href="#a"/><use xlink:href="#9"/><use xlink:href="#10" y="2.171"/><use xlink:href="#12" y="4.342"/><use xlink:href="#13" y="6.513"/><use xlink:href="#14" y="8.684"/><use xlink:href="#15" y="10.855"/><use xlink:href="#13" y="13.026"/><use xlink:href="#16" y="15.197"/><use xlink:href="#15" y="17.368"/><use xlink:href="#13" y="19.539"/><use xlink:href="#17" y="21.71"/><use xlink:href="#2" y="23.881"/><use xlink:href="#3" y="26.052"/><text y="29.893" class="g">May</text><text x="4.008" y="29.893" class="g">I</text><text x="6.012" y="29.893" class="g">have</text><text x="11.022" y="29.893" class="g">your</text><text x="16.032" y="29.893" class="g">name?</text><text x="22.044" y="29.893" class="g">S</text></svg><svg x="6533"><use xlink:href="#a"/><use xlink:href="#9"/><use xlink:href="#10" y="2.171"/><use xlink:href="#12" y="4.342"/><use xlink:href="#13" y="6.513"/><use xlink:href="#14" y="8.684"/><use xlink:href="#15" y="10.855"/><use xlink:href="#13" y="13.026"/><use xlink:href="#16" y="15.197"/><use xlink:href="#15" y="17.368"/><use xlink:href="#13" y="19.539"/><use xlink:href="#17" y="21.71"/><use xlink:href="#2" y="23.881"/><use xlink:href="#3" y="26.052"/><text y="29.893" class="g">May</text><text x="4.008" y="29.893" class="g">I</text><text x="6.012" y="29.893" class="g">have</text><text x="11.022" y="29.893" class="g">your</text><text x="16.032" y="29.893" class="g">name?</text><text x="22.044" y="29.893" class="g">St</text></svg><svg x="6672"><use xlink:href="#a"/><use xlink:href="#9"/><use xlink:href="#10" y="2.171"/><use xlink:href="#12" y="4.342"/><use xlink:href="#13" y="6.513"/><use xlink:href="#14" y="8.684"/><use xlink:href="#15" y="10.855"/><use xlink:href="#13" y="13.026"/><use xlink:href="#16" y="15.197"/><use xlink:href="#15" y="17.368"/><use xlink:href="#13" y="19.539"/><use xlink:href="#17" y="21.71"/><use xlink:href="#2" y="23.881"/><use xlink:href="#3" y="26.052"/><text y="29.893" class="g">May</text><text x="4.008" y="29.893" class="g">I</text><text x="6.012" y="29.893" class="g">have</text><text x="11.022" y="29.893" class="g">your</text><text x="16.032" y="29.893" class="g">name?</text><text x="22.044" y="29.893" class="g">Stu</text></svg><svg x="6811"><use xlink:href="#a"/><use xlink:href="#9"/><use xlink:href="#10" y="2.171"/><use xlink:href="#12" y="4.342"/><use xlink:href="#13" y="6.513"/><use xlink:href="#14" y="8.684"/><use xlink:href="#15" y="10.855"/><use xlink:href="#13" y="13.026"/><use xlink:href="#16" y="15.197"/><use xlink:href="#15" y="17.368"/><use xlink:href="#13" y="19.539"/><use xlink:href="#17" y="21.71"/><use xlink:href="#2" y="23.881"/><use xlink:href="#3" y="26.052"/><text y="29.893" class="g">May</text><text x="4.008" y="29.893" class="g">I</text><text x="6.012" y="29.893" class="g">have</text><text x="11.022" y="29.893" class="g">your</text><text x="16.032" y="29.893" class="g">name?</text><text x="22.044" y="29.893" class="g">Stup</text></svg><svg x="6950"><use xlink:href="#a"/><use xlink:href="#9"/><use xlink:href="#10" y="2.171"/><use xlink:href="#12" y="4.342"/><use xlink:href="#13" y="6.513"/><use xlink:href="#14" y="8.684"/><use xlink:href="#15" y="10.855"/><use xlink:href="#13" y="13.026"/><use xlink:href="#16" y="15.197"/><use xlink:href="#15" y="17.368"/><use xlink:href="#13" y="19.539"/><use xlink:href="#17" y="21.71"/><use xlink:href="#2" y="23.881"/><use xlink:href="#3" y="26.052"/><text y="29.893" class="g">May</text><text x="4.008" y="29.893" class="g">I</text><text x="6.012" y="29.893" class="g">have</text><text x="11.022" y="29.893" class="g">your</text><text x="16.032" y="29.893" class="g">name?</text><text x="22.044" y="29.893" class="g">Stupi</text></svg><svg x="7089"><use xlink:href="#a"/><use xlink:href="#9"/><use xlink:href="#10" y="2.171"/><use xlink:href="#12" y="4.342"/><use xlink:href="#13" y="6.513"/><use xlink:href="#14" y="8.684"/><use xlink:href="#15" y="10.855"/><use xlink:href="#13" y="13.026"/><use xlink:href="#16" y="15.197"/><use xlink:href="#15" y="17.368"/><use xlink:href="#13" y="19.539"/><use xlink:href="#17" y="21.71"/><use xlink:href="#2" y="23.881"/><use xlink:href="#3" y="26.052"/><use xlink:href="#18" y="28.223"/></svg><svg x="7228"><use xlink:href="#a"/><use xlink:href="#9"/><use xlink:href="#10" y="2.171"/><use xlink:href="#12" y="4.342"/><use xlink:href="#13" y="6.513"/><use xlink:href="#14" y="8.684"/><use xlink:href="#15" y="10.855"/><use xlink:href="#13" y="13.026"/><use xlink:href="#16" y="15.197"/><use xlink:href="#15" y="17.368"/><use xlink:href="#13" y="19.539"/><use xlink:href="#17" y="21.71"/><use xlink:href="#2" y="23.881"/><use xlink:href="#3" y="26.052"/><use xlink:href="#18" y="28.223"/></svg><svg x="7367"><use xlink:href="#a"/><use xlink:href="#9"/><use xlink:href="#10" y="2.171"/><use xlink:href="#12" y="4.342"/><use xlink:href="#13" y="6.513"/><use xlink:href="#14" y="8.684"/><use xlink:href="#15" y="10.855"/><use xlink:href="#13" y="13.026"/><use xlink:href="#16" y="15.197"/><use xlink:href="#15" y="17.368"/><use xlink:href="#13" y="19.539"/><use xlink:href="#17" y="21.71"/><use xlink:href="#2" y="23.881"/><use xlink:href="#3" y="26.052"/><text y="29.893" class="g">May</text><text x="4.008" y="29.893" class="g">I</text><text x="6.012" y="29.893" class="g">have</text><text x="11.022" y="29.893" class="g">your</text><text x="16.032" y="29.893" class="g">name?</text><text x="22.044" y="29.893" class="g">Stupid</text><text x="29.058" y="29.893" class="g">B</text></svg><svg x="7506"><use xlink:href="#a"/><use xlink:href="#9"/><use xlink:href="#10" y="2.171"/><use xlink:href="#12" y="4.342"/><use xlink:href="#13" y="6.513"/><use xlink:href="#14" y="8.684"/><use xlink:href="#15" y="10.855"/><use xlink:href="#13" y="13.026"/><use xlink:href="#16" y="15.197"/><use xlink:href="#15" y="17.368"/><use xlink:href="#13" y="19.539"/><use xlink:href="#17" y="21.71"/><use xlink:href="#2" y="23.881"/><use xlink:href="#3" y="26.052"/><text y="29.893" class="g">May</text><text x="4.008" y="29.893" class="g">I</text><text x="6.012" y="29.893" class="g">have</text><text x="11.022" y="29.893" class="g">your</text><text x="16.032" y="29.893" class="g">name?</text><text x="22.044" y="29.893" class="g">Stupid</text><text x="29.058" y="29.893" class="g">Br</text></svg><svg x="7645"><use xlink:href="#a"/><use xlink:href="#9"/><use xlink:href="#10" y="2.171"/><use xlink:href="#12" y="4.342"/><use xlink:href="#13" y="6.513"/><use xlink:href="#14" y="8.684"/><use xlink:href="#15" y="10.855"/><use xlink:href="#13" y="13.026"/><use xlink:href="#16" y="15.197"/><use xlink:href="#15" y="17.368"/><use xlink:href="#13" y="19.539"/><use xlink:href="#17" y="21.71"/><use xlink:href="#2" y="23.881"/><use xlink:href="#3" y="26.052"/><text y="29.893" class="g">May</text><text x="4.008" y="29.893" class="g">I</text><text x="6.012" y="29.893" class="g">have</text><text x="11.022" y="29.893" class="g">your</text><text x="16.032" y="29.893" class="g">name?</text><text x="22.044" y="29.893" class="g">Stupid</text><text x="29.058" y="29.893" class="g">Bry</text></svg><svg x="7784"><use xlink:href="#a"/><use xlink:href="#9"/><use xlink:href="#10" y="2.171"/><use xlink:href="#12" y="4.342"/><use xlink:href="#13" y="6.513"/><use xlink:href="#14" y="8.684"/><use xlink:href="#15" y="10.855"/><use xlink:href="#13" y="13.026"/><use xlink:href="#16" y="15.197"/><use xlink:href="#15" y="17.368"/><use xlink:href="#13" y="19.539"/><use xlink:href="#17" y="21.71"/><use xlink:href="#2" y="23.881"/><use xlink:href="#3" y="26.052"/><text y="29.893" class="g">May</text><text x="4.008" y="29.893" class="g">I</text><text x="6.012" y="29.893" class="g">have</text><text x="11.022" y="29.893" class="g">your</text><text x="16.032" y="29.893" class="g">name?</text><text x="22.044" y="29.893" class="g">Stupid</text><text x="29.058" y="29.893" class="g">Brya</text></svg><svg x="7923"><use xlink:href="#a"/><use xlink:href="#9"/><use xlink:href="#10" y="2.171"/><use xlink:href="#12" y="4.342"/><use xlink:href="#13" y="6.513"/><use xlink:href="#14" y="8.684"/><use xlink:href="#15" y="10.855"/><use xlink:href="#13" y="13.026"/><use xlink:href="#16" y="15.197"/><use xlink:href="#15" y="17.368"/><use xlink:href="#13" y="19.539"/><use xlink:href="#17" y="21.71"/><use xlink:href="#2" y="23.881"/><use xlink:href="#3" y="26.052"/><use xlink:href="#19" y="28.223"/></svg><svg x="8062"><use xlink:href="#a"/><use xlink:href="#10"/><use xlink:href="#12" y="2.171"/><use xlink:href="#13" y="4.342"/><use xlink:href="#14" y="6.513"/><use xlink:href="#15" y="8.684"/><use xlink:href="#13" y="10.855"/><use xlink:href="#16" y="13.026"/><use xlink:href="#15" y="15.197"/><use xlink:href="#13" y="17.368"/><use xlink:href="#17" y="19.539"/><use xlink:href="#2" y="21.71"/><use xlink:href="#3" y="23.881"/><use xlink:href="#19" y="26.052"/></svg><svg x="8201"><use xlink:href="#a"/><use xlink:href="#12"/><use xlink:href="#13" y="2.171"/><use xlink:href="#14" y="4.342"/><use xlink:href="#15" y="6.513"/><use xlink:href="#13" y="8.684"/><use xlink:href="#16" y="10.855"/><use xlink:href="#15" y="13.026"/><use xlink:href="#13" y="15.197"/><use xlink:href="#17" y="17.368"/><use xlink:href="#2" y="19.539"/><use xlink:href="#3" y="21.71"/><use xlink:href="#19" y="23.881"/><use xlink:href="#20" y="26.052"/></svg><svg x="8340"><use xlink:href="#a"/><use xlink:href="#13"/><use xlink:href="#14" y="2.171"/><use xlink:href="#15" y="4.342"/><use xlink:href="#13" y="6.513"/><use xlink:href="#16" y="8.684"/><use xlink:href="#15" y="10.855"/><use xlink:href="#13" y="13.026"/><use xlink:href="#17" y="15.197"/><use xlink:href="#2" y="17.368"/><use xlink:href="#3" y="19.539"/><use xlink:href="#19" y="21.71"/><use xlink:href="#20" y="23.881"/><use xlink:href="#9" y="26.052"/></svg><svg x="8479"><use xlink:href="#a"/><use xlink:href="#14"/><use xlink:href="#15" y="2.171"/><use xlink:href="#13" y="4.342"/><use xlink:href="#16" y="6.513"/><use xlink:href="#15" y="8.684"/><use xlink:href="#13" y="10.855"/><use xlink:href="#17" y="13.026"/><use xlink:href="#2" y="15.197"/><use xlink:href="#3" y="17.368"/><use xlink:href="#19" y="19.539"/><use xlink:href="#20" y="21.71"/><use xlink:href="#9" y="23.881"/><use xlink:href="#21" y="26.052"/></svg><svg x="8618"><use xlink:href="#a"/><use xlink:href="#14"/><use xlink:href="#15" y="2.171"/><use xlink:href="#13" y="4.342"/><use xlink:href="#16" y="6.513"/><use xlink:href="#15" y="8.684"/><use xlink:href="#13" y="10.855"/><use xlink:href="#17" y="13.026"/><use xlink:href="#2" y="15.197"/><use xlink:href="#3" y="17.368"/><use xlink:href="#19" y="19.539"/><use xlink:href="#20" y="21.71"/><use xlink:href="#9" y="23.881"/><use xlink:href="#21" y="26.052"/><use xlink:href="#11" y="28.223"/></svg><svg x="8757"><use xlink:href="#a"/><use xlink:href="#14"/><use xlink:href="#15" y="2.171"/><use xlink:href="#13" y="4.342"/><use xlink:href="#16" y="6.513"/><use xlink:href="#15" y="8.684"/><use xlink:href="#13" y="10.855"/><use xlink:href="#17" y="13.026"/><use xlink:href="#2" y="15.197"/><use xlink:href="#3" y="17.368"/><use xlink:href="#19" y="19.539"/><use xlink:href="#20" y="21.71"/><use xlink:href="#9" y="23.881"/><use xlink:href="#21" y="26.052"/><text y="29.893" class="g">Your</text><text x="5.01" y="29.893" class="g">answer:</text><text x="13.026" y="29.893" class="g">9</text></svg><svg x="8896"><use xlink:href="#a"/><use xlink:href="#14"/><use xlink:href="#15" y="2.171"/><use xlink:href="#13" y="4.342"/><use xlink:href="#16" y="6.513"/><use xlink:href="#15" y="8.684"/><use xlink:href="#13" y="10.855"/><use xlink:href="#17" y="13.026"/><use xlink:href="#2" y="15.197"/><use xlink:href="#3" y="17.368"/><use xlink:href="#19" y="19.539"/><use xlink:href="#20" y="21.71"/><use xlink:href="#9" y="23.881"/><use xlink:href="#21" y="26.052"/><use xlink:href="#11" y="28.223"/></svg><svg x="9035"><use xlink:href="#a"/><use xlink:href="#14"/><use xlink:href="#15" y="2.171"/><use xlink:href="#13" y="4.342"/><use xlink:href="#16" y="6.513"/><use xlink:href="#15" y="8.684"/><use xlink:href="#13" y="10.855"/><use xlink:href="#17" y="13.026"/><use xlink:href="#2" y="15.197"/><use xlink:href="#3" y="17.368"/><use xlink:href="#19" y="19.539"/><use xlink:href="#20" y="21.71"/><use xlink:href="#9" y="23.881"/><use xlink:href="#21" y="26.052"/><use xlink:href="#15" y="28.223"/></svg><svg x="9174"><use xlink:href="#a"/><use xlink:href="#14"/><use xlink:href="#15" y="2.171"/><use xlink:href="#13" y="4.342"/><use xlink:href="#16" y="6.513"/><use xlink:href="#15" y="8.684"/><use xlink:href="#13" y="10.855"/><use xlink:href="#17" y="13.026"/><use xlink:href="#2" y="15.197"/><use xlink:href="#3" y="17.368"/><use xlink:href="#19" y="19.539"/><use xlink:href="#20" y="21.71"/><use xlink:href="#9" y="23.881"/><use xlink:href="#21" y="26.052"/><use xlink:href="#22" y="28.223"/></svg><svg x="9313"><use xlink:href="#a"/><use xlink:href="#16"/><use xlink:href="#15" y="2.171"/><use xlink:href="#13" y="4.342"/><use xlink:href="#17" y="6.513"/><use xlink:href="#2" y="8.684"/><use xlink:href="#3" y="10.855"/><use xlink:href="#19" y="13.026"/><use xlink:href="#20" y="15.197"/><use xlink:href="#9" y="17.368"/><use xlink:href="#21" y="19.539"/><use xlink:href="#22" y="21.71"/><use xlink:href="#23" y="23.881"/><use xlink:href="#24" y="26.052"/></svg><svg x="9452"><use xlink:href="#a"/><use xlink:href="#16"/><use xlink:href="#15" y="2.171"/><use xlink:href="#13" y="4.342"/><use xlink:href="#17" y="6.513"/><use xlink:href="#2" y="8.684"/><use xlink:href="#3" y="10.855"/><use xlink:href="#19" y="13.026"/><use xlink:href="#20" y="15.197"/><use xlink:href="#9" y="17.368"/><use xlink:href="#21" y="19.539"/><use xlink:href="#22" y="21.71"/><use xlink:href="#23" y="23.881"/><use xlink:href="#24" y="26.052"/><use xlink:href="#1" y="28.223"/></svg><svg x="9591"><use xlink:href="#a"/><use xlink:href="#15"/><use xlink:href="#13" y="2.171"/><use xlink:href="#17" y="4.342"/><use xlink:href="#2" y="6.513"/><use xlink:href="#3" y="8.684"/><use xlink:href="#19" y="10.855"/><use xlink:href="#20" y="13.026"/><use xlink:href="#9" y="15.197"/><use xlink:href="#21" y="17.368"/><use xlink:href="#22" y="19.539"/><use xlink:href="#23" y="21.71"/><use xlink:href="#24" y="23.881"/><text y="27.722" class="f">nrzhn@t470s</text><text x="11.022" y="27.722" class="g">:</text><text x="12.024" y="27.722" class="h">~/hexlet/frontend-project-lvl1</text><text x="42.084" y="27.722" class="g">$</text><text x="44.088" y="27.722" class="g">exit</text></svg></svg></g></g></svg></svg>